<svg xmlns="http://www.w3.org/2000/svg" width="453.333" height="453.333" version="1" viewBox="0 0 340 340"><path d="M205 19.6c-7.8 1.2-17.1 4.4-25.5 8.7-6.8 3.4-8.4 3.5-12.6 1-1.9-1.2-7.8-3.6-13-5.3-8.7-2.9-10.3-3.1-22.8-2.9-8.6.1-15.3.7-18.5 1.6-23.6 6.9-39.6 21.1-52 46-5.7 11.4-6.5 14.7-5.7 21.5.3 2.3 2.5 4.5 5.2 5.1 2.1.5 4.1-.3 9.5-3.8 5.8-3.8 7.5-4.5 11.9-4.5 5 0 5.3.2 14 8.2 13.3 12.3 33 31.4 59.1 57.6 25.8 25.8 27.7 28.6 23.8 33.9-3.5 4.6-22.1 10.7-31.7 10.4-4-.2-11.7-3.3-16.8-6.9-2.4-1.7-11.4-9.8-19.9-18.1-17.7-17.1-20.4-19-24.7-17.2-6.4 2.6-6.2 8.4.8 16.1 12.4 13.9 20.2 30.6 16.4 35.6-.8 1-1.5 2.9-1.5 4.1 0 1.2-.5 2.5-1 2.8-1.3.8-1.3 5.1 0 7.5.5 1 2.4 2.3 4.1 2.9 4.4 1.5 9.8-1 10.6-5.1.3-1.5 1-3.1 1.4-3.4.5-.3.9-2.3.9-4.4 0-6.8 2.2-8.9 5.9-5.6 3 2.6 15.3 6.7 21.5 7.3 8.8.7 19.2-1.1 31.5-5.7 12-4.5 14.8-7 18.1-15.8 3.8-10.2 2.3-16.7-6.2-26.7-8.3-9.6-82-82.7-88.6-87.8-7-5.4-9.9-6.7-15.2-6.7-2.1 0-4.2-.4-4.5-1-.3-.5.7-2.9 2.3-5.2C85.1 59 97.7 46 99 46c.5 0 1.5-.6 2.2-1.3 1.7-1.7 9-4.6 15.8-6.3 11.3-2.7 29.3-1.1 39.4 3.6 8.5 4.1 18.1 15.2 23.8 27.7 3.3 7.3 3.4 7.9 4.4 16.2 1.3 11.8 6 17.3 12 14 7.5-4 3.8-29-7.1-47.5-2.5-4.2-4.3-7.9-4-8.4.9-1.4 7.7-4.6 14.9-7 5.8-1.9 8.9-2.3 19-2.2 11.2.1 12.7.4 20.7 3.5 13.5 5.3 23.2 13.1 30.8 24.7 7.2 11 9.3 18.4 9.5 33.4.2 11.1.1 11.9-2.7 17.4-6.6 12.8-13.3 20.1-26.4 28.8-10.3 6.9-12.1 10.2-7.9 14.7 3.4 3.7 7.1 4.4 11 2.2 12.6-7.2 21.4-14.6 30.2-25.5 2-2.5 4.2-4.9 5-5.3 3.6-2.1 17.5 10.6 24.6 22.5 5.1 8.6 6.7 16.4 6.3 29.7-.5 12.5-.8 14.1-5.5 23.6-5 10-11.9 18.9-16.8 21.5-19.5 10.2-25.3 11.6-51.4 12.1-7.9.1-10.1.5-11.7 2-4.7 4.4-3.1 10.5 3.4 12.7 5.3 1.8 33 1 39.5-1.1 2.5-.8 5.9-1.8 7.5-2.2 3.8-.8 17.9-7.5 18.3-8.6.2-.5 1-.9 1.8-.9.7 0 5.4-3.9 10.3-8.8 15.8-15.5 21.2-31 20.5-59.2-.2-10.7-1.7-19-3.4-19-.6 0-1-.7-1-1.5 0-.9-1.3-4.1-2.9-7.3-4.8-9.4-15.6-20.9-27.3-29l-5.2-3.7-.2-14.5c-.1-16.2-1.6-23.4-7.9-36.5-7.8-16.3-30.2-34.5-48.6-39.5-9.5-2.6-23.8-3.2-34.9-1.4zM33.3 177.9c-4.9 3.6-23.8 22.5-27.4 27.5-1.6 2.1-2.9 4.8-2.9 5.9 0 2.9 4.9 7.7 7.7 7.7 3.6 0 29.9-25.6 34-33.1 2.5-4.5 2.2-6.1-1.4-8.4-3.9-2.6-5.9-2.5-10 .4zM64 249.7c-10.3 8.5-25.3 24.8-26.8 29.3-1.3 3.5.7 6.5 4.9 7.5 2.1.5 4.3-1 15-10.1 6.8-5.9 14.3-12.8 16.7-15.3 3.8-4 4.3-5 3.8-8-1.2-7.8-6.6-9.1-13.6-3.4zM190.3 247c-3.1 1.3-47.2 45.5-56.5 56.8-1.6 1.9-2.8 4.2-2.8 5.3 0 2.9 4.8 6.9 8.1 6.9 3.1 0 8-4.4 39.3-35.5 24.1-23.9 25.2-25.6 20.4-30.9-2.7-2.9-5.5-3.8-8.5-2.6z"/></svg>